<?xml version="1.0" encoding="utf-8"?>
<svg xmlns="http://www.w3.org/2000/svg" xmlns:xlink="http://www.w3.org/1999/xlink" style="margin: auto; background: rgba(0, 0, 0, 0) none repeat scroll 0% 0%; display: block; shape-rendering: auto;" width="40px" height="40px" viewBox="0 0 100 100" preserveAspectRatio="xMidYMid">
<g transform="translate(50 50)">
<g>
<animateTransform attributeName="transform" type="rotate" values="0;40" keyTimes="0;1" dur="0.625s" repeatCount="indefinite"></animateTransform><path d="M24.49489742783178 -5 L31.49489742783178 -5 L31.49489742783178 5 L24.49489742783178 5 A25 25 0 0 1 21.97811810779258 11.91479435155806 L21.97811810779258 11.91479435155806 L27.340429209625427 16.414307619363836 L20.912553112760037 24.074752050553613 L15.55024201092719 19.57523878274784 A25 25 0 0 1 9.177533065542413 23.254524007832877 L9.177533065542413 23.254524007832877 L10.393070309210925 30.148178278918333 L0.5449927790888408 31.884660055587638 L-0.6705444645796722 24.991005784502182 A25 25 0 0 1 -7.9173216949936895 23.713203435596427 L-7.9173216949936895 23.713203435596427 L-11.417321694993689 29.7753812620875 L-20.07757573283808 24.7753812620875 L-16.57757573283808 18.71320343559643 A25 25 0 0 1 -21.307573643212905 13.076211432944126 L-21.307573643212905 13.076211432944126 L-27.885421988714263 15.470352436223807 L-31.305623421970957 6.073426228364722 L-24.727775076469598 3.6792852250850396 A25 25 0 0 1 -24.727775076469598 -3.6792852250850343 L-24.727775076469598 -3.6792852250850343 L-31.305623421970957 -6.073426228364715 L-27.885421988714267 -15.470352436223802 L-21.30757364321291 -13.07621143294412 A25 25 0 0 1 -16.577575732838092 -18.71320343559642 L-16.577575732838092 -18.71320343559642 L-20.077575732838095 -24.77538126208749 L-11.41732169499371 -29.775381262087492 L-7.917321694993706 -23.713203435596423 A25 25 0 0 1 -0.670544464579684 -24.991005784502182 L-0.670544464579684 -24.991005784502182 L0.5449927790888259 -31.884660055587638 L10.393070309210913 -30.148178278918344 L9.177533065542402 -23.254524007832885 A25 25 0 0 1 15.550242010927178 -19.575238782747846 L15.550242010927178 -19.575238782747846 L20.912553112760023 -24.074752050553624 L27.34042920962542 -16.414307619363843 L21.978118107792575 -11.914794351558065 A25 25 0 0 1 24.49489742783178 -5.000000000000008 M0 -15A15 15 0 1 0 0 15 A15 15 0 1 0 0 -15" fill="#353535"></path></g></g>
<!-- [ldio] generated by https://loading.io/ --></svg>
